<?xml version="1.0" encoding="utf-8"?>
<!-- Generator: Adobe Illustrator 19.1.0, SVG Export Plug-In . SVG Version: 6.00 Build 0)  -->
<svg version="1.1"
	 id="svg21775" xmlns:inkscape="http://www.inkscape.org/namespaces/inkscape" xmlns:dc="http://purl.org/dc/elements/1.1/" xmlns:cc="http://creativecommons.org/ns#" xmlns:sodipodi="http://sodipodi.sourceforge.net/DTD/sodipodi-0.dtd" xmlns:rdf="http://www.w3.org/1999/02/22-rdf-syntax-ns#" xmlns:svg="http://www.w3.org/2000/svg" inkscape:export-ydpi="184.19029" inkscape:export-xdpi="184.19029" sodipodi:docname="reddit-alien.svg" inkscape:export-filename="/home/chromakode/Documents/code/reddit/reddit-about/reddit_about/public/static/about/assets/reddit-alien.png" inkscape:version="0.48.3.1 r9886"
	 xmlns="http://www.w3.org/2000/svg" xmlns:xlink="http://www.w3.org/1999/xlink" x="0px" y="0px" viewBox="-132 262.4 358.2 257.7"
	 style="enable-background:new -132 262.4 358.2 257.7;" xml:space="preserve">
<style type="text/css">
	.st0{fill:#0069FF;}
	.st1{fill:#FF6900;}
</style>
<sodipodi:namedview  showgrid="false" fit-margin-left="0" inkscape:cx="178.3494" inkscape:zoom="1" guidetolerance="10" borderopacity="1" inkscape:cy="235.80988" fit-margin-top="0" pagecolor="#ffffff" bordercolor="#666666" objecttolerance="10" gridtolerance="10" id="namedview21835" fit-margin-bottom="0" fit-margin-right="0" inkscape:current-layer="svg21775" inkscape:window-maximized="0" inkscape:window-y="64" inkscape:window-x="1950" inkscape:window-height="900" inkscape:window-width="1261" inkscape:pageshadow="2" inkscape:pageopacity="0">
	</sodipodi:namedview>
<sodipodi:namedview  showgrid="false" fit-margin-left="0" inkscape:cx="178.3494" inkscape:zoom="1" guidetolerance="10" borderopacity="1" inkscape:cy="235.80988" fit-margin-top="0" pagecolor="#ffffff" bordercolor="#666666" objecttolerance="10" gridtolerance="10" id="namedview21835" fit-margin-bottom="0" fit-margin-right="0" inkscape:current-layer="svg21775" inkscape:window-maximized="0" inkscape:window-y="64" inkscape:window-x="1950" inkscape:window-height="900" inkscape:window-width="1261" inkscape:pageshadow="2" inkscape:pageopacity="0">
	</sodipodi:namedview>
<path class="st0" d="M192.2,338.8c-10.7,0-20.3,5-26.5,12.7c-21.9-15.6-51.2-26.6-84.3-30.7L35.3,476.1c5.2,0.8,11.1,1.2,17.8,1.2
	c38,0,49.8-14.7,49.9-14.9l6.4,4.7c-0.5,0.9-13.7,18.2-56.3,18.2c-7.6,0-14.2-0.6-20.1-1.5l-10.2,34.3c9.5,1.2,19.4,1.8,29.5,1.8
	c85,0,154-45,154-100.5c0-5.1-0.6-10.2-1.7-15.1c12.7-5.1,21.6-17.3,21.6-31.7C226.2,354,211,338.8,192.2,338.8z M107.6,424.8
	c-13.7,0-25.2-11.1-25.2-24.8c0-13.7,11.5-25.2,25.2-25.2c13.7,0,24.8,11.5,24.8,25.2C132.4,413.7,121.3,424.8,107.6,424.8z"/>
<path class="st1" d="M150.4,263.1c-11,0-20.5,6.7-24.6,16.2c-0.5-0.3-1.1-0.6-1.8-0.7l-68-16c-3.1-0.7-6.1,1-7.1,4l-16.6,52.5
	c-41.1,1.4-77.8,13.3-104.3,31.7c-6.2-7.4-15.5-12-26-12c-18.8,0-34,15.2-34,34c0,13.9,8.3,25.8,20.2,31.1
	c-1.2,5.1-1.9,10.4-1.9,15.7c0,48.9,53.6,89.7,124.5,98.7L21,483.9c-26.9-4.2-36.1-16.1-36.5-16.6l6.4-4.8
	c0.1,0.1,8.3,10.1,32.4,13.7l46.1-155.3c-5.8-0.7-11.8-1.2-17.8-1.5l-6.7-0.2l13.8-43.6l62.6,14.7c0.8,0.2,1.6,0.2,2.3,0.1
	c0.2,14.6,12.1,26.4,26.8,26.4c14.8,0,26.8-12,26.8-26.8C177.2,275.1,165.2,263.1,150.4,263.1z M-12.9,424.8
	c-13.8,0-25.2-11.1-25.2-24.8s11.5-25.2,25.2-25.2c13.7,0,24.8,11.5,24.8,25.2S0.8,424.8-12.9,424.8z"/>
</svg>
