<?xml version="1.0" encoding="utf-8"?>
<!-- Generator: Adobe Illustrator 19.1.0, SVG Export Plug-In . SVG Version: 6.00 Build 0)  -->
<svg version="1.1"
	 id="svg11927" xmlns:sodipodi="http://sodipodi.sourceforge.net/DTD/sodipodi-0.dtd" xmlns:cc="http://creativecommons.org/ns#" xmlns:svg="http://www.w3.org/2000/svg" xmlns:rdf="http://www.w3.org/1999/02/22-rdf-syntax-ns#" xmlns:inkscape="http://www.inkscape.org/namespaces/inkscape" xmlns:dc="http://purl.org/dc/elements/1.1/" inkscape:version="0.48.4 r9939" sodipodi:docname="New document 9"
	 xmlns="http://www.w3.org/2000/svg" xmlns:xlink="http://www.w3.org/1999/xlink" x="0px" y="0px"
	 viewBox="-204.8 320.5 191.5 134.2" style="enable-background:new -204.8 320.5 191.5 134.2;" xml:space="preserve">
<style type="text/css">
	.st0{fill:#FFFFFF;}
</style>
<sodipodi:namedview  borderlayer="false" inkscape:cx="171.00263" bordercolor="#666666" pagecolor="#ffffff" borderopacity="1.0" inkscape:zoom="1.979899" fit-margin-top="0" fit-margin-left="0" inkscape:cy="45.260689" id="base" showgrid="false" units="mm" inkscape:window-maximized="1" inkscape:window-width="1680" fit-margin-bottom="0" inkscape:current-layer="layer1" inkscape:document-units="mm" inkscape:pageshadow="2" inkscape:window-height="988" inkscape:window-x="-8" inkscape:window-y="-8" fit-margin-right="0" inkscape:pageopacity="0.0">
	</sodipodi:namedview>
<path id="path11905" sodipodi:nodetypes="cssscccscccccc" inkscape:connector-curvature="0" class="st0" d="M-13.4,383.8
	c-0.5-39.6,4.4-59.6-38.3-62.3c-30.6-1.5-107.6-1.4-122.1,0.1c-14.9,1.6-20,4.3-24.3,12.7c-5.5,10.9-6.9,22.2-6.8,55.5
	c0.1,47.1,4.8,60.1,23.1,63.9c3.6,0.8,37,1.2,77.3,1c79.3-0.4,76.7-0.1,83.5-10.4C-14,433.8-12.9,424.9-13.4,383.8z"/>
<path d="M-111.8,371.4h8.1v32.4h-8.1V371.4z M-125.3,371.4h-16.2c-3.2,0-5.4,2.7-5.4,5.4v21.6c0,2.7,2.2,5.4,5.4,5.4h16.2
	c3.2,0,5.4-2.7,5.4-5.4v-10.8h-8.1v8.1h-10.8v-16.2h18.9v-2.7C-119.9,374.1-122,371.4-125.3,371.4z M-71.2,379.5v-8.1h-24.3v32.4
	h8.1V393h10.8v-8.1h-10.8v-5.4H-71.2z"/>
</svg>
