<?xml version="1.0" encoding="utf-8"?>
<!-- Generator: Adobe Illustrator 19.1.0, SVG Export Plug-In . SVG Version: 6.00 Build 0)  -->
<svg version="1.1"
	 id="svg21775" xmlns:rdf="http://www.w3.org/1999/02/22-rdf-syntax-ns#" xmlns:cc="http://creativecommons.org/ns#" xmlns:svg="http://www.w3.org/2000/svg" xmlns:sodipodi="http://sodipodi.sourceforge.net/DTD/sodipodi-0.dtd" xmlns:dc="http://purl.org/dc/elements/1.1/" xmlns:inkscape="http://www.inkscape.org/namespaces/inkscape" inkscape:export-ydpi="184.19029" inkscape:export-xdpi="184.19029" inkscape:export-filename="/home/chromakode/Documents/code/reddit/reddit-about/reddit_about/public/static/about/assets/reddit-alien.png" sodipodi:docname="reddit-alien.svg" inkscape:version="0.48.3.1 r9886"
	 xmlns="http://www.w3.org/2000/svg" xmlns:xlink="http://www.w3.org/1999/xlink" x="0px" y="0px" viewBox="-125 147 360 500"
	 style="enable-background:new -125 147 360 500;" xml:space="preserve">
<style type="text/css">
	.st0{fill:url(#SVGID_1_);}
	.st1{fill:url(#SVGID_2_);}
	.st2{fill:#FFFFFF;}
	.st3{fill:none;stroke:#FCFCFC;stroke-width:4;stroke-linecap:round;stroke-linejoin:round;}
	.st4{fill:none;}
	.st5{fill:#FF6900;}
	.st6{fill:none;stroke:#FF6900;stroke-width:2;stroke-linecap:round;}
</style>
<sodipodi:namedview  gridtolerance="10" fit-margin-left="0" inkscape:cy="235.80988" fit-margin-top="0" showgrid="false" guidetolerance="10" objecttolerance="10" inkscape:zoom="1" inkscape:cx="178.3494" bordercolor="#666666" id="namedview21835" borderopacity="1" pagecolor="#ffffff" fit-margin-bottom="0" fit-margin-right="0" inkscape:current-layer="svg21775" inkscape:window-maximized="0" inkscape:window-y="64" inkscape:window-x="1950" inkscape:window-height="900" inkscape:window-width="1261" inkscape:pageshadow="2" inkscape:pageopacity="0">
	</sodipodi:namedview>
<g id="Layer_3" transform="translate(-56.49872,470.00082)">
</g>
<g>
	<radialGradient id="SVGID_1_" cx="40" cy="325.36" r="52" gradientUnits="userSpaceOnUse">
		<stop  offset="0" style="stop-color:#FFAD73"/>
		<stop  offset="1" style="stop-color:#FF6900"/>
	</radialGradient>
	<path class="st0" d="M92,285.4v80c0,6.6-5.4,12-12,12H0c-6.6,0-12-5.4-12-12v-80c0-6.6,5.4-12,12-12h80
		C86.6,273.4,92,278.8,92,285.4z"/>
	<radialGradient id="SVGID_2_" cx="40" cy="325.36" r="52" gradientUnits="userSpaceOnUse">
		<stop  offset="0" style="stop-color:#FFFFFF;stop-opacity:0.7"/>
		<stop  offset="0.1735" style="stop-color:#FFFFFF;stop-opacity:0.4046"/>
		<stop  offset="0.6224" style="stop-color:#FFFFFF;stop-opacity:0.2"/>
		<stop  offset="1" style="stop-color:#FFFFFF;stop-opacity:0.1"/>
	</radialGradient>
	<path class="st1" d="M80,273.4h-7.8l-11.8,20l-10,17l-9.2,15.5L61.7,314h0L92,296.3v-11C92,278.8,86.6,273.4,80,273.4z M36.3,330.4
		L36.3,330.4l-2.5,1.5c0,0,0,0,0,0L9.3,346.1L-12,358.5v6.8c0,6.6,5.4,12,12,12h10.5l2.8-4.8l9-15.4v0l0.6-1.1l1-1.6l5.3-9l9.3-15.8
		l0.6-1L36.3,330.4z M71,345.6l-19.4-11.4l0,0l-3-1.8c0,0,0,0,0,0l-7-4.1l1,1.7h0l8.8,15.2l5.3,9.1l0.4,0.7l0.9,1.6l8.6,14.8v0
		l3.5,6H80c6.6,0,12-5.4,12-12V358L71,345.6z M29.6,310.3L8,273.4H0c-6.6,0-12,5.4-12,12v10.9L18.2,314c0,0,0,0,0,0l20.7,12.2
		L29.6,310.3z M79.6,317.3L79.6,317.3l-9.5,2.4l-5.1,1.3l-9.1,2.3l-8.1,2.1L42,327l5.1,1.3l11.1,2.9l18,4.7l15.8,4.2v-26.1
		L79.6,317.3z M32.6,326l-8.7-2.3l-8.7-2.3l-5.6-1.5l-9.1-2.4l-12.5-3.3v26.4l15.8-4.1l18.5-4.8l10.8-2.8l5.3-1.4L32.6,326z
		 M47.8,357.3l-0.2-0.8l-2.3-8.9l-4.6-17.9l-0.2-0.6l-0.2,0.6l-4.7,18l-2.4,8.9l-0.3,1.2l-5.2,19.7H53L47.8,357.3z M26.5,273.4
		l9.3,36.1l4.2,16.1l4.2-16.1l5-18.8l4.6-17.3H26.5z"/>
</g>
<g>
	<path class="st2" d="M66.7,371.4v0.1c0,2.1-0.3,4-0.9,5.8H41.3c-0.6-1.8-0.9-3.8-0.9-5.8c0-6.3,3-11.7,7.4-14.3
		c1.8-1,3.7-1.6,5.8-1.6c1.3,0,2.6,0.2,3.8,0.7c0.2,0.1,0.5,0.2,0.7,0.3C63.1,358.8,66.7,364.6,66.7,371.4z"/>
	
		<circle id="circle21800" sodipodi:ry="2.7019999" sodipodi:rx="2.7019999" sodipodi:cy="11.836" sodipodi:cx="49.683998" class="st2" cx="7.2" cy="322.1" r="8.1">
	</circle>
	
		<circle id="circle21802" sodipodi:ry="2.7019999" sodipodi:rx="2.7019999" sodipodi:cy="11.836" sodipodi:cx="71.786003" class="st2" cx="73.1" cy="322.1" r="8.1">
	</circle>
	<path id="path21804" inkscape:connector-curvature="0" class="st3" d="M62.5,293.8c0,0,0,0-16.1-3.8l-5.9,18.7"/>
	<path class="st2" d="M39.6,371.5c0,2.1-0.3,4-0.9,5.8H14.2c-0.5-1.5-0.8-3.1-0.9-4.8c0-0.4,0-0.7,0-1.1c0-7.1,3.9-13.1,9.2-15.1
		c0.2-0.1,0.3-0.1,0.5-0.2c1.1-0.4,2.3-0.5,3.5-0.5c2.4,0,4.6,0.8,6.5,2.1C36.9,360.4,39.6,365.6,39.6,371.5z"/>
	
		<circle id="circle21808" sodipodi:ry="2.1300001" sodipodi:rx="2.1300001" sodipodi:cy="2.789" sodipodi:cx="70.431" class="st2" cx="69.1" cy="295.1" r="6.4">
	</circle>
	<g id="g21812">
		<path class="st2" d="M58.2,367.4c0,3.5-0.2,6.8-0.7,10H22.4c-0.4-3.2-0.6-6.5-0.6-10c0-3.5,0.2-6.9,0.7-10.1v0
			c0-0.3,0.1-0.6,0.1-0.9c0.1-0.7,0.2-1.5,0.4-2.2c1.9-10.3,5.8-18.5,10.9-22.3c0,0,0,0,0,0c0.8-0.6,1.7-1.1,2.5-1.5h0
			c0.8-0.3,1.5-0.5,2.3-0.7c0.4-0.1,0.9-0.1,1.4-0.1c0.1,0,0.3,0,0.4,0c0.1,0,0.2,0,0.3,0c0.7,0,1.3,0.2,2,0.4h0
			c6.6,2,12.1,11.5,14.4,24.2c0.1,0.3,0.1,0.5,0.1,0.8c0.1,0.4,0.1,0.9,0.2,1.3C57.9,359.8,58.2,363.5,58.2,367.4z"/>
	</g>
	<path class="st4" d="M58.2,367.4c0,3.5-0.2,6.8-0.7,10H22.4c-0.4-3.2-0.6-6.5-0.6-10c0-3.5,0.2-6.9,0.7-10.1v0
		c0-0.3,0.1-0.6,0.1-0.9c0.1-0.7,0.2-1.5,0.4-2.2c1.9-10.3,5.8-18.5,10.9-22.3c0,0,0,0,0,0c0.8-0.6,1.7-1.1,2.5-1.5h0
		c0.8-0.3,1.5-0.5,2.3-0.7c0.4-0.1,0.9-0.1,1.4-0.1c0.1,0,0.3,0,0.4,0c0.1,0,0.2,0,0.3,0c0.7,0,1.3,0.2,2,0.4h0
		c6.6,2,12.1,11.5,14.4,24.2c0.1,0.3,0.1,0.5,0.1,0.8c0.1,0.4,0.1,0.9,0.2,1.3C57.9,359.8,58.2,363.5,58.2,367.4z"/>
	
		<ellipse id="ellipse21820" sodipodi:ry="7.987" sodipodi:rx="12.238" sodipodi:cy="15.552" sodipodi:cx="60.675999" class="st2" cx="40" cy="333.1" rx="36.5" ry="23.8">
	</ellipse>
	<path id="circle21826" inkscape:connector-curvature="0" class="st5" d="M27.3,322.5c-3.2,0-6,2.7-6,6c0,3.2,2.7,5.9,6,5.9
		s5.9-2.6,5.9-5.9C33.2,325.3,30.6,322.5,27.3,322.5z"/>
	<path id="circle21828" inkscape:connector-curvature="0" class="st5" d="M53,322.5c-3.2,0-6,2.7-6,6c0,3.2,2.7,5.9,6,5.9
		s5.9-2.6,5.9-5.9C58.9,325.3,56.3,322.5,53,322.5z"/>
	<path id="path21830" inkscape:connector-curvature="0" class="st6" d="M27.5,344.1c3.2,3.2,8.3,3.8,12.6,3.8"/>
	<path id="path21832" inkscape:connector-curvature="0" class="st6" d="M52.7,344.1c-3.2,3.2-8.3,3.8-12.6,3.8"/>
</g>
</svg>
