<?xml version="1.0" encoding="utf-8"?>
<!-- Generator: Adobe Illustrator 19.1.0, SVG Export Plug-In . SVG Version: 6.00 Build 0)  -->
<svg version="1.1" id="Layer_1" xmlns="http://www.w3.org/2000/svg" xmlns:xlink="http://www.w3.org/1999/xlink" x="0px" y="0px"
	 viewBox="-289 386 16 21" style="enable-background:new -289 386 16 21;" xml:space="preserve">
<path d="M-275,393h-1h-1.9h-0.8h-5.4v-2c0-1.7,1.4-3.1,3.1-3.1c1.7,0,3.1,1.4,3.1,3.1h1.9c0-2.7-2.3-5-5-5c-2.8,0-5,2.2-5,5v2h-1
	c-1.1,0-2,0.9-2,2v10c0,1.1,0.9,2,2,2h12c1.1,0,2-0.9,2-2v-10C-273,393.9-273.9,393-275,393z M-281,402c-1.1,0-2-0.9-2-2s0.9-2,2-2
	s2,0.9,2,2S-279.9,402-281,402z"/>
</svg>
