<?xml version="1.0" encoding="utf-8"?>
<!-- Generator: Adobe Illustrator 19.1.0, SVG Export Plug-In . SVG Version: 6.00 Build 0)  -->
<svg version="1.1"
	 id="svg21775" inkscape:export-xdpi="184.19029" sodipodi:docname="reddit-alien.svg" inkscape:export-filename="/home/chromakode/Documents/code/reddit/reddit-about/reddit_about/public/static/about/assets/reddit-alien.png" inkscape:version="0.48.3.1 r9886" inkscape:export-ydpi="184.19029" xmlns:cc="http://creativecommons.org/ns#" xmlns:dc="http://purl.org/dc/elements/1.1/" xmlns:sodipodi="http://sodipodi.sourceforge.net/DTD/sodipodi-0.dtd" xmlns:svg="http://www.w3.org/2000/svg" xmlns:inkscape="http://www.inkscape.org/namespaces/inkscape" xmlns:rdf="http://www.w3.org/1999/02/22-rdf-syntax-ns#"
	 xmlns="http://www.w3.org/2000/svg" xmlns:xlink="http://www.w3.org/1999/xlink" x="0px" y="0px" viewBox="-7.3 350.5 45.6 34.4"
	 style="enable-background:new -7.3 350.5 45.6 34.4;" xml:space="preserve">
<style type="text/css">
	.st0{fill:#FF6700;}
	.st1{fill:#0067FF;}
</style>
<sodipodi:namedview  fit-margin-bottom="0" fit-margin-right="0" inkscape:current-layer="svg21775" inkscape:window-maximized="0" inkscape:window-y="64" inkscape:window-x="1950" inkscape:window-height="900" inkscape:window-width="1261" inkscape:pageshadow="2" inkscape:pageopacity="0" objecttolerance="10" gridtolerance="10" id="namedview21835" pagecolor="#ffffff" guidetolerance="10" fit-margin-left="0" bordercolor="#666666" fit-margin-top="0" inkscape:cy="235.80988" inkscape:cx="178.3494" inkscape:zoom="1" showgrid="false" borderopacity="1">
	</sodipodi:namedview>
<g id="Layer_3_1_" transform="translate(-56.49872,470.00082)">
</g>
<path class="st0" d="M-5.1,370.6c-0.2,0.6-0.3,1.3-0.4,1.9c-0.4,4.7,3.3,9.2,9.1,11.8l17.5-21.7c-1.6-0.5-3.4-0.9-5.2-1.1
	c0,0,0,0,0-0.1l3.6-8.8l7.5,2.4c0.1,0,0.2,0,0.3,0c0,1.8,1.3,3.2,3.1,3.4c1.9,0.1,3.5-1.2,3.6-3.1c0.1-1.9-1.2-3.5-3.1-3.6
	c-1.3-0.1-2.5,0.6-3.1,1.6c-0.1-0.1-0.2-0.1-0.2-0.1l-8.4-2.7c-0.5-0.2-1,0.1-1.2,0.5l-3.9,9.6c-0.1,0.2-0.1,0.4,0,0.6
	c-5.3-0.3-10.2,0.8-13.8,2.9c-0.7-1-1.8-1.7-3.1-1.8c-2.4-0.2-4.4,1.6-4.6,3.9C-7.4,368.2-6.5,369.8-5.1,370.6z M7.6,367.9
	c1.7,0.1,3,1.7,2.9,3.4c-0.1,1.7-1.6,3-3.3,2.9s-3-1.6-2.9-3.4C4.3,369.1,5.9,367.8,7.6,367.9z"/>
<path class="st1" d="M38.3,368.1c0.2-2.4-1.6-4.4-3.9-4.6c-1.3-0.1-2.6,0.4-3.4,1.3c-1.7-1.4-3.9-2.7-6.4-3.6L7,383
	c2.4,1,5.2,1.6,8.1,1.8c10.7,0.8,19.7-4.1,20.3-11.1c0.1-0.6,0-1.3-0.1-1.9C36.9,371.3,38.2,369.9,38.3,368.1z M22.9,373.4
	c-1.7-0.1-3-1.6-2.9-3.4c0.1-1.7,1.7-3,3.4-2.9c1.7,0.1,3,1.7,2.9,3.4C26.2,372.3,24.7,373.6,22.9,373.4z"/>
</svg>
