<?xml version="1.0" encoding="utf-8"?>
<!-- Generator: Adobe Illustrator 19.1.0, SVG Export Plug-In . SVG Version: 6.00 Build 0)  -->
<svg version="1.1" id="Layer_1" xmlns="http://www.w3.org/2000/svg" xmlns:xlink="http://www.w3.org/1999/xlink" x="0px" y="0px"
	 viewBox="-251 376.8 107.3 41.2" style="enable-background:new -251 376.8 107.3 41.2;" xml:space="preserve">
<style type="text/css">
	.st0{fill:#FFFFFF;}
</style>
<g>
	<path class="st0" d="M-250,412.3c1.4,0.9,3.8,1.6,5.8,1.6c4.2,0,6.7-2.8,6.7-6.8c0-3.7-2.2-6-5.3-8.4c-3.2-2.2-7.6-6-7.6-11.2
		c0-6.2,4.3-10.7,10.7-10.7c2.5,0,4.7,0.8,5.7,1.5l-1.1,4c-1-0.7-2.7-1.4-4.8-1.4c-4,0-5.8,3-5.8,5.8c0,4,2.1,5.6,5.9,8.3
		c4.9,3.4,7,7.1,7,11.6c0,7-4.9,11.3-11.3,11.3c-2.8,0-5.7-0.9-6.8-1.7L-250,412.3z"/>
	<path class="st0" d="M-222.8,377.2v17.3h11.3v-17.3h4.6v40.4h-4.6v-18.9h-11.3v18.9h-4.6v-40.4H-222.8z"/>
	<path class="st0" d="M-195,377.2v40.4h-4.6v-40.4H-195z"/>
	<path class="st0" d="M-187.7,417.6v-40.4h4.4l7.4,19c1.7,4.3,3.8,9.7,5.2,14.1h0.1c-0.4-6.4-0.5-11.6-0.5-18.6v-14.5h4.1v40.4h-4.4
		l-7.7-19.4c-1.6-4.1-3.4-8.7-4.8-13.7h-0.1c0.4,5.4,0.5,10.6,0.5,19.2v14h-4.2V417.6z"/>
	<path class="st0" d="M-145,398.4h-10.2v15.2h11.5v4h-16.1v-40.4h15.4v4h-10.8v13.3h10.2V398.4z"/>
</g>
</svg>
