<?xml version="1.0" encoding="utf-8"?>
<!-- Generator: Adobe Illustrator 19.1.0, SVG Export Plug-In . SVG Version: 6.00 Build 0)  -->
<svg version="1.1" id="Layer_1" xmlns="http://www.w3.org/2000/svg" xmlns:xlink="http://www.w3.org/1999/xlink" x="0px" y="0px"
	 viewBox="-289 387 16 20" style="enable-background:new -289 387 16 20;" xml:space="preserve">
<path d="M-273,404.6V393l-6-6h-8c-1.1,0-2,0.9-2,2l0,16c0,1.1,0.9,2,2,2h12c0.5,0,0.9-0.1,1.2-0.4l-4.4-4.4
	c-0.8,0.5-1.7,0.8-2.8,0.8c-2.8,0-5-2.2-5-5s2.2-5,5-5s5,2.2,5,5c0,1-0.3,2-0.8,2.8L-273,404.6z M-284,398c0,1.7,1.3,3,3,3
	s3-1.3,3-3s-1.3-3-3-3S-284,396.3-284,398z"/>
</svg>
