<?xml version="1.0" encoding="utf-8"?>
<!-- Generator: Adobe Illustrator 19.1.0, SVG Export Plug-In . SVG Version: 6.00 Build 0)  -->
<svg version="1.1" id="Layer_1" xmlns="http://www.w3.org/2000/svg" xmlns:xlink="http://www.w3.org/1999/xlink" x="0px" y="0px"
	 viewBox="0 0 107.3 41.2" style="enable-background:new 0 0 107.3 41.2;" xml:space="preserve">
<g>
	<path d="M1,35.5c1.4,0.9,3.8,1.6,5.8,1.6c4.2,0,6.7-2.8,6.7-6.8c0-3.7-2.2-6-5.3-8.4c-3.2-2.2-7.6-6-7.6-11.2C0.6,4.5,4.9,0,11.3,0
		C13.8,0,16,0.8,17,1.5l-1.1,4c-1-0.7-2.7-1.4-4.8-1.4c-4,0-5.8,3-5.8,5.8c0,4,2.1,5.6,5.9,8.3c4.9,3.4,7,7.1,7,11.6
		c0,7-4.9,11.3-11.3,11.3c-2.8,0-5.7-0.9-6.8-1.7L1,35.5z"/>
	<path d="M28.2,0.4v17.3h11.3V0.4h4.6v40.4h-4.6V21.9H28.2v18.9h-4.6V0.4H28.2z"/>
	<path d="M56,0.4v40.4h-4.6V0.4H56z"/>
	<path d="M63.3,40.8V0.4h4.4l7.4,19c1.7,4.3,3.8,9.7,5.2,14.1h0.1c-0.4-6.4-0.5-11.6-0.5-18.6V0.4H84v40.4h-4.4l-7.7-19.4
		c-1.6-4.1-3.4-8.7-4.8-13.7H67c0.4,5.4,0.5,10.6,0.5,19.2v14H63.3z"/>
	<path d="M106,21.6H95.8v15.2h11.5v4H91.2V0.4h15.4v4H95.8v13.3H106V21.6z"/>
</g>
</svg>
