<?xml version="1.0" encoding="utf-8"?>
<!-- Generator: Adobe Illustrator 19.1.0, SVG Export Plug-In . SVG Version: 6.00 Build 0)  -->
<svg version="1.1" id="Layer_1" xmlns="http://www.w3.org/2000/svg" xmlns:xlink="http://www.w3.org/1999/xlink" x="0px" y="0px"
	 viewBox="-586 772.4 16 21.3" style="enable-background:new -586 772.4 16 21.3;" xml:space="preserve">
<style type="text/css">
	.st0{fill:#FFFFFF;}
</style>
<path class="st0" d="M-576.5,772.4c0,0,0.7,2.6,0.7,4.8c0,2.1-1.3,3.7-3.4,3.7c-2.1,0-3.6-1.7-3.6-3.7v-0.4c-2,2.4-3.2,5.5-3.2,8.9
	c0,4.4,3.6,8,8,8s8-3.6,8-8C-570,780.3-572.6,775.5-576.5,772.4z M-578.3,790.7c-1.8,0-3.2-1.4-3.2-3.1c0-1.6,1.1-2.8,2.8-3.1
	c1.8-0.4,3.6-1.2,4.6-2.6c0.4,1.3,0.6,2.7,0.6,4C-573.5,788.6-575.6,790.7-578.3,790.7z"/>
</svg>
