<?xml version="1.0" encoding="utf-8"?>
<!-- Generator: Adobe Illustrator 19.1.0, SVG Export Plug-In . SVG Version: 6.00 Build 0)  -->
<svg version="1.1"
	 id="svg11927" xmlns:sodipodi="http://sodipodi.sourceforge.net/DTD/sodipodi-0.dtd" xmlns:cc="http://creativecommons.org/ns#" xmlns:svg="http://www.w3.org/2000/svg" xmlns:rdf="http://www.w3.org/1999/02/22-rdf-syntax-ns#" xmlns:inkscape="http://www.inkscape.org/namespaces/inkscape" xmlns:dc="http://purl.org/dc/elements/1.1/" inkscape:version="0.48.4 r9939" sodipodi:docname="New document 9"
	 xmlns="http://www.w3.org/2000/svg" xmlns:xlink="http://www.w3.org/1999/xlink" x="0px" y="0px" viewBox="-209 331.7 191.5 134.2"
	 style="enable-background:new -209 331.7 191.5 134.2;" xml:space="preserve">
<style type="text/css">
	.st0{fill:#C30000;}
	.st1{fill:#FFFFFF;}
</style>
<sodipodi:namedview  borderlayer="false" inkscape:cx="171.00263" bordercolor="#666666" pagecolor="#ffffff" borderopacity="1.0" inkscape:zoom="1.979899" fit-margin-top="0" fit-margin-left="0" inkscape:cy="45.260689" id="base" showgrid="false" units="mm" inkscape:window-maximized="1" inkscape:window-width="1680" fit-margin-bottom="0" inkscape:current-layer="layer1" inkscape:document-units="mm" inkscape:pageshadow="2" inkscape:window-height="988" inkscape:window-x="-8" inkscape:window-y="-8" fit-margin-right="0" inkscape:pageopacity="0.0">
	</sodipodi:namedview>
<path id="path11905" sodipodi:nodetypes="cssscccscccccc" inkscape:connector-curvature="0" class="st0" d="M-17.6,395.1
	c-0.5-39.6,4.4-59.6-38.3-62.3c-30.6-1.5-107.6-1.4-122.1,0.1c-14.9,1.6-20,4.3-24.3,12.7c-5.5,10.9-6.9,22.2-6.8,55.5
	c0.1,47.1,4.8,60.1,23.1,63.9c3.6,0.8,37,1.2,77.3,1c79.3-0.4,76.7-0.1,83.5-10.4C-18.2,445.1-17.1,436.1-17.6,395.1z"/>
<path class="st1" d="M-82,398.5c-10.6,7.9-32.2,22.6-46.4,31.4c-0.3-14.9,0.1-45.2-0.3-61.8C-119,374.1-99.9,386.7-82,398.5z"/>
</svg>
